<svg class="vector fh" width="300px" height="300px" xmlns="http://www.w3.org/2000/svg" baseProfile="full" version="1.1" style="width: 300px; height: 300px; stroke: rgb(0, 0, 0); stroke-width: 12; fill: none; stroke-linecap: round;"><g transform="translate(0,0)"><path d="M105,0 L120,30  M105,300 L120,270  M120,300 L120,0  M105,0 L120,0  M105,300 L120,300  M135,300 L135,0  M150,165 A-30,-15 0 0,1 120,150  M150,120 A-30,15 0 0,1 120,135  A30,15 0 0,0 150,150  M150,300 L150,0  "></path></g><g><path d="M105,0 L120,30  M105,300 L120,270  M120,300 L120,0  M105,0 L120,0  M105,300 L120,300  M135,300 L135,0  M150,165 A-30,-15 0 0,1 120,150  M150,120 A-30,15 0 0,1 120,135  A30,15 0 0,0 150,150  M150,300 L150,0  " transform="translate(300,0),scale(-1,1)"></path></g></svg>