<svg
    class="vector fh"
    width="300px"
    height="300px"
    xmlns="http://www.w3.org/2000/svg"
    baseProfile="full"
    version="1.1"
    style="width: 300px; height: 300px; stroke: rgb(0, 0, 0); stroke-width: 18; fill: none; stroke-linecap: square;">
    <defs>
        <linearGradient id="work-gradient">
            <stop offset="0" stop-color="#454f43" />
            <stop offset="1" stop-color="#60ef34" />
        </linearGradient>
    </defs>
    <g transform="translate(0,0)">
        <path stroke="url(#work-gradient)" d="M30,0 L30,45 M30,75 L30,105 M30,135 L30,165 M30,195 L30,225 M30,255 L30,285 M90,0 L90,60 M90,90 L90,135 M90,165 L90,210 M90,240 L90,300 M150,75 L150,0 M150,180 L150,105 M150,300 L150,210 M210,0 L210,135 M210,165 L210,300 M270,0 L270,300"></path>
    </g>
    <g>
        <path d="M0,0" transform=""></path>
    </g>
</svg>
